# xmcd
#
# Track frame offsets:
# 150
# 10950
# 21255
# 33023
# 50065
# 61005
# 68412
# 83797
# 96506
# 105761
# 117617
# 125737
# 132982
# 142060
# 165364
# 185351
# 198285
# 209283
# 220483
#
# Disc length: 3062 seconds
#
# Revision: 0
# Processed by: cddbd v1.4PL0 Copyright (c) Steve Scherf et al.
# Submitted via: Axialis_AX_CDPlayer 2.6
#
DISCID=0d0bf413
DTITLE=Nitty Gritty Dirt Band - Dirt, Silver and Gold 1
DYEAR=1900
DGENRE=
TTITLE0=Buy For Me The Rain
TTITLE1=Melissa
TTITLE2=Collegiana
TTITLE3=Mournin' Blues
TTITLE4=Willie The Weeper
TTITLE5=Uncle Charlie Interview
TTITLE6=Mr. Bojangles
TTITLE7=Some Of Shelley's Blues
TTITLE8=The Cure
TTITLE9=House At Pooh Corner
TTITLE10=Randy Lynn Rag
TTITLE11=Clemente Opus 36
TTITLE12=Livin' Without You
TTITLE13=Sixteen Tracks
TTITLE14=Fish Song
TTITLE15=Creepin' 'Round Your Back Door
TTITLE16=Honky Tonkin'
TTITLE17=Togary Mountain
TTITLE18=Soldier's Joy
EXTD=
EXTT0=
EXTT1=
EXTT2=
EXTT3=
EXTT4=
EXTT5=
EXTT6=
EXTT7=
EXTT8=
EXTT9=
EXTT10=
EXTT11=
EXTT12=
EXTT13=
EXTT14=
EXTT15=
EXTT16=
EXTT17=
EXTT18=
PLAYORDER=
